<svg width="28" height="28" viewBox="0 0 28 28" fill="none" xmlns="http://www.w3.org/2000/svg">
<path d="M25.826 2.17327C24.4303 0.781832 22.5398 0.000488281 20.569 0.000488281C18.5981 0.000488281 16.7077 0.781832 15.3119 2.17327L6.88656 10.6005C6.45309 11.0313 6.10948 11.5439 5.87566 12.1085C5.64183 12.6731 5.52246 13.2785 5.52445 13.8896C5.52445 14.4997 5.6447 15.1038 5.87833 15.6673C6.11196 16.2309 6.45438 16.7429 6.88601 17.174C7.31765 17.6051 7.83003 17.9469 8.39386 18.1798C8.95769 18.4128 9.56191 18.5323 10.172 18.5316C11.3613 18.5316 12.5487 18.0819 13.4555 17.1751L17.3988 13.2337C18.0946 12.5362 18.4854 11.5913 18.4854 10.6061C18.4854 9.6209 18.0946 8.67593 17.3988 7.9785L10.8279 14.5475C10.6535 14.7219 10.4168 14.82 10.1701 14.82C9.92338 14.82 9.68676 14.7219 9.51229 14.5475C9.33782 14.373 9.23981 14.1364 9.23981 13.8896C9.23981 13.6429 9.33782 13.4063 9.51229 13.2318L17.9395 4.80086C18.6381 4.1057 19.5835 3.71545 20.569 3.71545C21.5545 3.71545 22.4999 4.1057 23.1984 4.80086C23.8938 5.49854 24.2843 6.44341 24.2843 7.42845C24.2843 8.41349 23.8938 9.35836 23.1984 10.056L14.7675 18.487L10.0568 23.1977C9.35909 23.8931 8.41421 24.2835 7.42917 24.2835C6.44413 24.2835 5.49926 23.8931 4.80158 23.1977C4.1053 22.5005 3.7142 21.5555 3.7142 20.5701C3.7142 19.5848 4.1053 18.6397 4.80158 17.9425L4.97812 17.7641C4.13082 16.6219 3.67345 15.2375 3.67362 13.8153L2.174 15.3149C0.781875 16.7096 0 18.5996 0 20.5701C0 22.5406 0.781875 24.4307 2.174 25.8253C3.62159 27.2729 5.52631 27.9995 7.42917 27.9995C9.33204 27.9995 11.2368 27.2729 12.6843 25.8253L25.826 12.6836C27.2181 11.289 28 9.39898 28 7.42845C28 5.45792 27.2181 3.5679 25.826 2.17327Z" fill="#0F0F0F"/>
</svg>
