<svg width="191" height="8" viewBox="0 0 191 8" fill="none" xmlns="http://www.w3.org/2000/svg">
<path d="M45.4184 7.63233C43.6439 7.65271 41.896 7.20815 40.3522 6.34475C39.646 5.91735 38.9664 5.44866 38.3162 4.94185C38.0139 4.71125 37.7024 4.48066 37.342 4.25971C36.6412 3.68216 35.7566 3.36522 34.8434 3.36522C33.9295 3.36522 33.0455 3.68162 32.3442 4.25917C32.0327 4.48012 31.7402 4.71072 31.438 4.94131C30.9509 5.31616 30.4637 5.69101 29.9276 6.03691C28.2413 7.07458 26.2945 7.62527 24.3068 7.62527C22.3191 7.62527 20.3719 7.07506 18.6854 6.03744C18.1592 5.69156 17.7112 5.32635 17.1947 4.9515C16.8734 4.7016 16.5418 4.4517 16.2205 4.21146C15.5366 3.68699 14.6955 3.40223 13.8289 3.40223C12.9629 3.40223 12.1212 3.68699 11.4373 4.21146C11.0671 4.46135 10.7262 4.73055 10.3756 4.99923C10.0249 5.26843 9.40137 5.73928 8.88489 6.08518C6.21497 7.68591 2.97054 8.05808 0 7.10408L0.769802 4.74994C3.0499 5.47979 5.53821 5.19557 7.5888 3.97128C8.05634 3.67311 8.4755 3.33687 8.90389 3.01029C9.33228 2.6837 9.67369 2.4145 10.0825 2.13564C11.191 1.32373 12.536 0.885062 13.9169 0.885062C15.2972 0.885062 16.6417 1.32373 17.7502 2.13564C18.1204 2.39519 18.4809 2.67405 18.8315 2.94272C19.1822 3.21192 19.6888 3.60554 20.1564 3.9037C21.4334 4.67539 22.9019 5.0835 24.399 5.0835C25.8968 5.0835 27.365 4.67539 28.6421 3.9037C29.1194 3.59642 29.5484 3.25965 29.9768 2.94272C30.4052 2.62578 30.6199 2.44292 30.951 2.20267C32.0829 1.33339 33.4767 0.862549 34.9109 0.862549C36.3457 0.862549 37.7389 1.33393 38.8714 2.20321C39.2123 2.44346 39.5341 2.69335 39.8456 2.9336C40.4175 3.38461 41.0161 3.80128 41.638 4.18257C43.7408 5.31677 46.2559 5.43422 48.4576 4.4995C49.4324 4.00775 50.3561 3.4216 51.2145 2.75078L51.9549 2.21237C53.0939 1.3463 54.4917 0.875987 55.93 0.875987C57.368 0.875987 58.7657 1.3463 59.9047 2.21237L60.8789 2.9138C61.415 3.32726 61.9309 3.71123 62.4865 4.06677C63.65 4.7843 65.0139 5.12107 66.3834 5.0283L66.471 7.49776C64.5927 7.59858 62.7301 7.11809 61.1421 6.12382C60.499 5.71036 59.9146 5.26847 59.3594 4.8459L58.4727 4.18308C57.7584 3.62966 56.8765 3.32827 55.9687 3.32827C55.0608 3.32827 54.1791 3.62911 53.4652 4.18254L52.7444 4.70164C51.756 5.47065 50.6921 6.14038 49.5684 6.70036C48.2712 7.30902 46.8541 7.62749 45.4184 7.63233Z" fill="#BDB0EC"/>
<path d="M107.418 7.63233C105.644 7.65271 103.896 7.20815 102.352 6.34475C101.646 5.91735 100.966 5.44866 100.316 4.94185C100.014 4.71125 99.7024 4.48066 99.342 4.25971C98.6412 3.68216 97.7566 3.36522 96.8434 3.36522C95.9295 3.36522 95.0455 3.68162 94.3442 4.25917C94.0327 4.48012 93.7402 4.71072 93.438 4.94131C92.9509 5.31616 92.4637 5.69101 91.9276 6.03691C90.2413 7.07458 88.2945 7.62527 86.3068 7.62527C84.3191 7.62527 82.3719 7.07506 80.6854 6.03744C80.1592 5.69156 79.7112 5.32635 79.1947 4.9515C78.8734 4.7016 78.5418 4.4517 78.2205 4.21146C77.5366 3.68699 76.6955 3.40223 75.8289 3.40223C74.9629 3.40223 74.1212 3.68699 73.4373 4.21146C73.0671 4.46135 72.7262 4.73055 72.3756 4.99923C72.0249 5.26843 71.4014 5.73928 70.8849 6.08518C68.215 7.68591 65 8.26068 62 6.28785L62.5 4.21146C65 5.30143 67.5382 5.19557 69.5888 3.97128C70.0563 3.67311 70.4755 3.33687 70.9039 3.01029C71.3323 2.6837 71.6737 2.4145 72.0825 2.13564C73.191 1.32373 74.536 0.885062 75.9169 0.885062C77.2972 0.885062 78.6417 1.32373 79.7502 2.13564C80.1204 2.39519 80.4809 2.67405 80.8315 2.94272C81.1822 3.21192 81.6888 3.60554 82.1564 3.9037C83.4334 4.67539 84.9019 5.0835 86.399 5.0835C87.8968 5.0835 89.3651 4.67539 90.6421 3.9037C91.1194 3.59642 91.5484 3.25965 91.9768 2.94272C92.4052 2.62578 92.6199 2.44292 92.951 2.20267C94.0829 1.33339 95.4767 0.862549 96.9109 0.862549C98.3457 0.862549 99.7389 1.33393 100.871 2.20321C101.212 2.44346 101.534 2.69335 101.846 2.9336C102.418 3.38461 103.016 3.80128 103.638 4.18257C105.741 5.31677 108.256 5.43422 110.458 4.4995C111.432 4.00775 112.356 3.4216 113.214 2.75078L113.955 2.21237C115.094 1.3463 116.492 0.875987 117.93 0.875987C119.368 0.875987 120.766 1.3463 121.905 2.21237L122.879 2.9138C123.415 3.32726 123.931 3.71123 124.487 4.06677C125.65 4.7843 127.014 5.12107 128.383 5.0283L128.471 7.49776C126.593 7.59858 124.73 7.11809 123.142 6.12382C122.499 5.71036 121.915 5.26847 121.359 4.8459L120.473 4.18308C119.758 3.62966 118.877 3.32827 117.969 3.32827C117.061 3.32827 116.179 3.62911 115.465 4.18254L114.744 4.70164C113.756 5.47065 112.692 6.14038 111.568 6.70036C110.271 7.30902 108.854 7.62749 107.418 7.63233Z" fill="#BDB0EC"/>
<path d="M169.418 7.63233C167.644 7.65271 165.896 7.20815 164.352 6.34475C163.646 5.91735 162.966 5.44866 162.316 4.94185C162.014 4.71125 161.702 4.48066 161.342 4.25971C160.641 3.68216 159.757 3.36522 158.843 3.36522C157.93 3.36522 157.046 3.68162 156.344 4.25917C156.033 4.48012 155.74 4.71072 155.438 4.94131C154.951 5.31616 154.464 5.69101 153.928 6.03691C152.241 7.07458 150.294 7.62527 148.307 7.62527C146.319 7.62527 144.372 7.07506 142.685 6.03744C142.159 5.69156 141.711 5.32635 141.195 4.9515C140.873 4.7016 140.542 4.4517 140.22 4.21146C139.537 3.68699 138.696 3.40223 137.829 3.40223C136.963 3.40223 136.121 3.68699 135.437 4.21146C135.067 4.46135 134.726 4.73055 134.376 4.99923C134.025 5.26843 133.401 5.73928 132.885 6.08518C130.215 7.68591 127 8.26068 124 6.28785L124.5 4.21146C127 5.30143 129.538 5.19557 131.589 3.97128C132.056 3.67311 132.475 3.33687 132.904 3.01029C133.332 2.6837 133.674 2.4145 134.083 2.13564C135.191 1.32373 136.536 0.885062 137.917 0.885062C139.297 0.885062 140.642 1.32373 141.75 2.13564C142.12 2.39519 142.481 2.67405 142.831 2.94272C143.182 3.21192 143.689 3.60554 144.156 3.9037C145.433 4.67539 146.902 5.0835 148.399 5.0835C149.897 5.0835 151.365 4.67539 152.642 3.9037C153.119 3.59642 153.548 3.25965 153.977 2.94272C154.405 2.62578 154.62 2.44292 154.951 2.20267C156.083 1.33339 157.477 0.862549 158.911 0.862549C160.346 0.862549 161.739 1.33393 162.871 2.20321C163.212 2.44346 163.534 2.69335 163.846 2.9336C164.418 3.38461 165.016 3.80128 165.638 4.18257C167.741 5.31677 170.256 5.43422 172.458 4.4995C173.432 4.00775 174.356 3.4216 175.214 2.75078L175.955 2.21237C177.094 1.3463 178.492 0.875987 179.93 0.875987C181.368 0.875987 182.766 1.3463 183.905 2.21237L184.879 2.9138C185.415 3.32726 185.931 3.71123 186.487 4.06677C187.65 4.7843 189.014 5.12107 190.383 5.0283L190.471 7.49776C188.593 7.59858 186.73 7.11809 185.142 6.12382C184.499 5.71036 183.915 5.26847 183.359 4.8459L182.473 4.18308C181.758 3.62966 180.877 3.32827 179.969 3.32827C179.061 3.32827 178.179 3.62911 177.465 4.18254L176.744 4.70164C175.756 5.47065 174.692 6.14038 173.568 6.70036C172.271 7.30902 170.854 7.62749 169.418 7.63233Z" fill="#BDB0EC"/>
</svg>
